<svg version="1.1" xmlns="http://www.w3.org/2000/svg" viewBox="0 0 1386 2378.766948769197" width="1386" height="2378.766948769197">
  <!-- svg-source:excalidraw -->
  
  <defs>
    <style>
      @font-face {
        font-family: "Virgil";
        src: url("https://excalidraw.com/Virgil.woff2");
      }
      @font-face {
        font-family: "Cascadia";
        src: url("https://excalidraw.com/Cascadia.woff2");
      }
    </style>
  </defs>
  <rect x="0" y="0" width="1386" height="2378.766948769197" fill="#ffffff"></rect><g transform="translate(466.0000072870116 10) rotate(0 307.5 22.5)"><text x="0" y="32" font-family="Virgil, Segoe UI Emoji" font-size="36px" fill="#000000" text-anchor="start" style="white-space: pre;" direction="ltr">Spring Security OAuth2 Client Flow</text></g><g stroke-linecap="round" transform="translate(240.0000072870116 96) rotate(0 499.5 25.5)"><path d="M-0.2 0.46 C303.32 -2.1, 606.99 -1.6, 999.51 0.43 M0.31 -0.15 C283.13 2.22, 566.37 2.7, 999.08 -0.22 M1000.1 1.73 C998.34 15.18, 997.71 31.21, 998.35 50.4 M999.79 0.5 C998.7 10.02, 998.42 20.25, 998.99 50.67 M998.94 50.41 C766.17 49.72, 531.48 49, 0.38 51.75 M998.98 51.23 C704.1 49.18, 408.61 49.87, -0.26 51.24 M1.75 49.07 C0.64 35.3, -0.66 22.66, 1.47 -0.26 M-0.99 50.51 C0.02 36.21, 0.31 19.55, 0.27 -0.8" stroke="#000000" stroke-width="1" fill="none"></path></g><g transform="translate(284.0000072870116 113) rotate(0 456.5 12.5)"><text x="0" y="18" font-family="Virgil, Segoe UI Emoji" font-size="20px" fill="#000000" text-anchor="start" style="white-space: pre;" direction="ltr">@RegisteredOAuth2AuthorizedClient(registrationId) OAuth2AuthorizedClient authorizedClient</text></g><g stroke-linecap="round" transform="translate(485.0000072870116 208.5) rotate(0 240 41.5)"><path d="M-0.18 0.84 C131.15 -0.13, 263.15 -0.61, 479.83 -0.78 M0.06 0.38 C99.81 1.43, 198.86 1.24, 480.24 0.06 M479.93 1.01 C480.47 18.14, 480.09 37.61, 479.27 81.23 M479.19 -0.83 C479.41 26.49, 479.53 53.63, 479.29 83.41 M480.23 83.13 C297.48 83.09, 116.05 82.45, 0.28 82.59 M479.78 83.03 C366.27 82.75, 252.63 82.76, 0.34 82.94 M-1.89 84.35 C-0.17 54, 1.26 26.31, -0.64 1.42 M0.08 83.12 C-0.64 53.79, -0.34 25.08, 0.53 -0.93" stroke="#000000" stroke-width="1" fill="none"></path></g><g transform="translate(515.0000072870116 224.5) rotate(0 200.5 25)"><text x="0" y="18" font-family="Virgil, Segoe UI Emoji" font-size="20px" fill="#000000" text-anchor="start" style="white-space: pre;" direction="ltr">OAuth2AuthorizedClientArgumentResolver</text><text x="0" y="43" font-family="Virgil, Segoe UI Emoji" font-size="20px" fill="#000000" text-anchor="start" style="white-space: pre;" direction="ltr">  .resolveArgument()</text></g><g stroke-linecap="round" transform="translate(649.0000072870116 364.5) rotate(0 240 41.5)"><path d="M-0.65 -0.11 C102.95 0.53, 207.02 0.37, 480.75 0.77 M-0.33 -0.19 C157 0.96, 314.32 1.4, 480.41 -0.16 M478.21 0.75 C479.16 22.57, 479.61 42.59, 478 82.94 M480.77 0.03 C480.42 32.37, 480.5 65.79, 479.08 83.51 M479.89 82.47 C351.7 80.83, 223.9 81.27, -0.16 82.4 M480.2 82.97 C315.68 82.5, 151.61 82.44, 0.05 82.87 M0.04 82.97 C0.72 58.1, 0.88 32.05, -0.87 1.29 M0.61 83.96 C0.34 64.26, -1.11 46.83, -0.82 0.1" stroke="#000000" stroke-width="1" fill="none"></path></g><g transform="translate(668.0000072870116 381.5) rotate(0 195 25)"><text x="0" y="18" font-family="Virgil, Segoe UI Emoji" font-size="20px" fill="#000000" text-anchor="start" style="white-space: pre;" direction="ltr">DefaultOAuth2AuthorizedClientManager</text><text x="0" y="43" font-family="Virgil, Segoe UI Emoji" font-size="20px" fill="#000000" text-anchor="start" style="white-space: pre;" direction="ltr">  .authorize()</text></g><g stroke-linecap="round"><g transform="translate(720.150310387238 159.00000000000006) rotate(0 1.0865878091483978 21.46509239104107)"><path d="M0.57 0.23 C0.58 7.42, 0.6 36.31, 0.66 43.63 M-0.59 -0.7 C-0.28 6.11, 2.11 34.66, 2.76 41.84" stroke="#000000" stroke-width="1" fill="none"></path></g><g transform="translate(720.150310387238 159.00000000000006) rotate(0 1.0865878091483978 21.46509239104107)"><path d="M-5.93 20.39 C-2 27.6, 2 37.29, 4.28 40.49 M-6.13 23.27 C-3.51 29.01, -0.4 34.6, 2.94 41.41" stroke="#000000" stroke-width="1" fill="none"></path></g><g transform="translate(720.150310387238 159.00000000000006) rotate(0 1.0865878091483978 21.46509239104107)"><path d="M8.74 19.13 C7.53 26.85, 6.4 36.98, 4.28 40.49 M8.53 22.01 C6.52 28.03, 5 34.02, 2.94 41.41" stroke="#000000" stroke-width="1" fill="none"></path></g></g><g stroke-linecap="round" transform="translate(530.3333406203451 1856.5000000000005) rotate(0 114.5 114.5)"><path d="M138.63 2.48 C151.16 3.28, 164.98 10.46, 175.98 17.52 C186.98 24.57, 196.51 34.47, 204.63 44.82 C212.75 55.18, 220.54 67.19, 224.69 79.65 C228.85 92.11, 230.32 106.51, 229.55 119.58 C228.78 132.66, 225.22 146, 220.05 158.11 C214.88 170.22, 207.43 182.57, 198.52 192.26 C189.61 201.95, 178.2 210.13, 166.57 216.25 C154.94 222.37, 141.5 227.44, 128.73 228.99 C115.95 230.54, 102.57 228.65, 89.92 225.54 C77.27 222.43, 63.94 217.22, 52.85 210.33 C41.75 203.43, 31.19 194.37, 23.35 184.18 C15.51 173.98, 9.59 161.65, 5.8 149.16 C2.02 136.68, 0.28 122.31, 0.65 109.28 C1.03 96.25, 3.2 82.92, 8.05 70.98 C12.9 59.05, 20.89 47.47, 29.74 37.68 C38.59 27.88, 49.5 18.25, 61.13 12.22 C72.76 6.19, 86.01 2.87, 99.52 1.51 C113.03 0.14, 134.38 3.09, 142.21 4.04 C150.03 5, 146.86 5.4, 146.49 7.22 M119.86 0.76 C132.31 -0.21, 146.59 4.17, 158.54 9.27 C170.49 14.37, 181.8 22.57, 191.56 31.38 C201.32 40.18, 210.77 50.33, 217.11 62.11 C223.44 73.89, 228.33 89.12, 229.56 102.05 C230.79 114.98, 227.85 127.38, 224.48 139.68 C221.1 151.98, 216.06 164.75, 209.31 175.84 C202.57 186.94, 194.17 198.07, 184.01 206.25 C173.86 214.42, 160.84 221.37, 148.37 224.89 C135.9 228.41, 122.35 228.17, 109.2 227.38 C96.04 226.58, 81.78 224.8, 69.45 220.11 C57.12 215.42, 44.49 208.36, 35.21 199.25 C25.92 190.15, 19.67 177.59, 13.72 165.49 C7.77 153.39, 1.36 139.54, -0.48 126.64 C-2.33 113.74, -0.78 100.5, 2.66 88.08 C6.09 75.66, 12.82 62.91, 20.14 52.11 C27.46 41.31, 36.26 31.17, 46.55 23.27 C56.85 15.38, 69.39 8.49, 81.89 4.74 C94.38 0.99, 115.25 0.97, 121.51 0.78 C127.77 0.59, 119.52 1.94, 119.47 3.61" stroke="#000000" stroke-width="1" fill="none"></path></g><g transform="translate(544.3333406203451 1959.5) rotate(0 101.5 12.5)"><text x="0" y="18" font-family="Virgil, Segoe UI Emoji" font-size="20px" fill="#000000" text-anchor="start" style="white-space: pre;" direction="ltr">Authorization Server</text></g><g stroke-linecap="round"><g transform="translate(577.5999928587282 309.0288535311014) rotate(0 29.53749688242158 50.52423728883656)"><path d="M0.24 -0.4 C-1 24.61, 2.06 46.84, -1.02 99.61 M-0.57 -0.44 C0.26 30.53, -1.02 60.55, -0.52 99.45 M-0.22 99.71 C15.04 100.6, 35.19 101.74, 60.09 100.29 M-0.74 100.63 C16.8 100.4, 34.91 101.6, 58.88 101.48" stroke="#000000" stroke-width="1" fill="none"></path></g><g transform="translate(577.5999928587282 309.0288535311014) rotate(0 29.53749688242158 50.52423728883656)"><path d="M31.12 111 C35.84 110.13, 45.49 106.53, 57.86 101.14 M30.31 110.96 C39.96 108.44, 47.16 105.17, 58.36 100.97" stroke="#000000" stroke-width="1" fill="none"></path></g><g transform="translate(577.5999928587282 309.0288535311014) rotate(0 29.53749688242158 50.52423728883656)"><path d="M31.3 90.68 C36.09 94.59, 45.7 95.77, 57.86 101.14 M30.48 90.64 C40.02 94.28, 47.17 97.16, 58.36 100.97" stroke="#000000" stroke-width="1" fill="none"></path></g></g><g stroke-linecap="round" transform="translate(791.7000072141416 517.2644267655506) rotate(0 259.5 41.5)"><path d="M-0.5 0.56 C182.27 -1.99, 365.66 -1.3, 518.84 0.08 M0.06 0.25 C114.13 0.65, 227.3 0.56, 518.84 0.01 M520.83 -1.18 C517.11 23.64, 517.78 46.88, 518.92 82.29 M519.3 0.48 C518.74 25.72, 518.56 49.93, 519.94 83.9 M518.4 82.55 C370.83 84.65, 224.48 84.31, 0.22 83.67 M519.15 83.34 C326.08 82.03, 133.96 81.89, 0.37 82.87 M-1.48 83.65 C-0.36 50.34, 1.77 17.56, -0.07 -0.94 M0.76 83.81 C-0.56 62.04, -0.03 41.5, -0.66 0.9" stroke="#000000" stroke-width="1" fill="none"></path></g><g transform="translate(810.7000072141416 533.2644267655506) rotate(0 244 25)"><text x="0" y="18" font-family="Virgil, Segoe UI Emoji" font-size="20px" fill="#000000" text-anchor="start" style="white-space: pre;" direction="ltr">AuthorizationCodeOAuth2AuthorizedClientProvider</text><text x="0" y="43" font-family="Virgil, Segoe UI Emoji" font-size="20px" fill="#000000" text-anchor="start" style="white-space: pre;" direction="ltr">  .authorize()</text></g><g stroke-linecap="round"><g transform="translate(720.299992785858 461.79328029665214) rotate(0 28.73271081124028 50.11945094860454)"><path d="M-1.92 -1.94 C-1.66 35.59, -1.02 71.82, -1.62 98.51 M0.9 -0.24 C-0.45 25.96, -0.24 52.84, -0.15 99.36 M-1.4 99.95 C11.87 100.12, 25.12 100.03, 59.39 102.18 M-0.77 100.82 C15.69 100.18, 34.19 101.14, 59.24 100" stroke="#000000" stroke-width="1" fill="none"></path></g><g transform="translate(720.299992785858 461.79328029665214) rotate(0 28.73271081124028 50.11945094860454)"><path d="M29.69 108.96 C40.55 106.59, 51.08 103.11, 57.63 98.57 M32.51 110.66 C38.29 107.4, 45.8 104.98, 59.09 99.42" stroke="#000000" stroke-width="1" fill="none"></path></g><g transform="translate(720.299992785858 461.79328029665214) rotate(0 28.73271081124028 50.11945094860454)"><path d="M29.15 88.65 C40.07 93.55, 50.8 97.34, 57.63 98.57 M31.97 90.35 C37.93 92.45, 45.58 95.4, 59.09 99.42" stroke="#000000" stroke-width="1" fill="none"></path></g></g><g stroke-linecap="round" transform="translate(800.2000072141416 940.2644267655505) rotate(0 259.5 41.5)"><path d="M0.69 0.13 C199.71 -0.81, 399.02 -0.53, 519.37 0.63 M-0.22 -0.35 C176.74 0.62, 353.04 1.11, 518.76 -0.14 M518.94 -0.4 C519.91 29.46, 518.5 62.27, 519.09 82.04 M519.06 0.78 C518.45 31.81, 518.47 63.82, 518.03 83.83 M519.1 83.11 C402.62 83.94, 285.19 84.08, 0.04 83.54 M518.66 83.12 C396.66 81.25, 273.92 80.84, -0.07 82.75 M0.65 82.52 C0.89 57.65, 1.57 31.8, 0.76 -0.82 M0.24 82.99 C-0.17 51.66, -1.67 20.66, -0.87 -0.37" stroke="#000000" stroke-width="1" fill="none"></path></g><g transform="translate(819.2000072141416 957.2644267655505) rotate(0 221 25)"><text x="0" y="18" font-family="Virgil, Segoe UI Emoji" font-size="20px" fill="#000000" text-anchor="start" style="white-space: pre;" direction="ltr">RefreshTokenOAuth2AuthorizedClientProvider</text><text x="0" y="43" font-family="Virgil, Segoe UI Emoji" font-size="20px" fill="#000000" text-anchor="start" style="white-space: pre;" direction="ltr">  .authorize()</text></g><g stroke-linecap="round"><g transform="translate(693.799992785858 461.79328029665214) rotate(0 45.949780780475635 260.55950239058575)"><path d="M-0.12 0.44 C1.51 187.7, 2.9 374.59, 1.32 519.36 M0.12 -0.26 C-1.08 134.03, -0.86 267.46, 1.29 519.24 M1.3 517.48 C33.79 520.24, 68.91 519.57, 92.51 521.37 M0.22 518.46 C30.03 518.1, 59.61 520.31, 89.98 520.84" stroke="#000000" stroke-width="1" fill="none"></path></g><g transform="translate(693.799992785858 461.79328029665214) rotate(0 45.949780780475635 260.55950239058575)"><path d="M61.18 531.34 C70.05 528.62, 82.87 525, 90.78 521.88 M61.8 529.61 C68.38 528.66, 75.63 525.31, 90.7 521.58" stroke="#000000" stroke-width="1" fill="none"></path></g><g transform="translate(693.799992785858 461.79328029665214) rotate(0 45.949780780475635 260.55950239058575)"><path d="M61.79 510.83 C70.62 515.5, 83.22 519.27, 90.78 521.88 M62.42 509.1 C68.73 513.43, 75.82 515.37, 90.7 521.58" stroke="#000000" stroke-width="1" fill="none"></path></g></g><g stroke-linecap="round" transform="translate(917 661.266948769197) rotate(0 104 103.99999999999994)"><path d="M105.74 0.12 C132.26 27.96, 162.7 59.27, 209.12 103.7 M104.08 0.51 C132.06 30.5, 161.49 58.97, 207.99 103.3 M206.19 102.09 C180.37 128.71, 154.17 157.55, 102.37 206.27 M208.55 103.65 C184.09 127.08, 161.28 148.7, 104.63 208.61 M105.76 209.04 C82.33 184.66, 57.65 162.04, 0.89 105.69 M103.45 208.06 C72.85 175.54, 39.03 142.95, -0.49 104.31 M-1.3 103.05 C25.87 78.23, 47.89 53.67, 104.84 1.86 M-0.03 104.19 C40.24 63.38, 81.62 22.54, 104.67 0.67" stroke="#000000" stroke-width="1" fill="none"></path></g><g transform="translate(937 755.766948769197) rotate(0 87.15000000000009 10.5)"><text x="0" y="15.00000000000005" font-family="Virgil, Segoe UI Emoji" font-size="16.80000000000002px" fill="#000000" text-anchor="start" style="white-space: pre;" direction="ltr">Is client authorized?</text></g><g stroke-linecap="round"><g transform="translate(1021 613.266948769197) rotate(0 1.5338089556080376 18.52765397528094)"><path d="M1.17 -0.44 C1.44 6.13, 2.4 32.53, 2.75 38.77 M0.32 -1.71 C0.38 4.61, 1.65 30.63, 2.12 37.25" stroke="#000000" stroke-width="1" fill="none"></path></g><g transform="translate(1021 613.266948769197) rotate(0 1.5338089556080376 18.52765397528094)"><path d="M-6.01 20.89 C-0.68 28.45, -0.52 32.88, 2.52 38.66 M-5.66 19.86 C-4.5 24.71, -2.35 27.72, 2.7 36.89" stroke="#000000" stroke-width="1" fill="none"></path></g><g transform="translate(1021 613.266948769197) rotate(0 1.5338089556080376 18.52765397528094)"><path d="M6.85 20.15 C7.11 28.13, 2.21 32.84, 2.52 38.66 M7.2 19.12 C5.32 24.24, 4.45 27.43, 2.7 36.89" stroke="#000000" stroke-width="1" fill="none"></path></g></g><g stroke-linecap="round"><g transform="translate(1021 886.266948769197) rotate(0 1.8483571641147591 20.66763084948991)"><path d="M-0.41 0.9 C0.29 7.47, 3.66 33.47, 4.11 39.99 M1.57 0.33 C2.22 6.96, 3.2 34.24, 3.74 41" stroke="#000000" stroke-width="1" fill="none"></path></g><g transform="translate(1021 886.266948769197) rotate(0 1.8483571641147591 20.66763084948991)"><path d="M-2.84 23.96 C-3.56 26.49, -1.06 33.97, 3.22 39.84 M-4.84 22.05 C-3.49 25.22, -0.98 29.23, 3.04 40.26" stroke="#000000" stroke-width="1" fill="none"></path></g><g transform="translate(1021 886.266948769197) rotate(0 1.8483571641147591 20.66763084948991)"><path d="M11.2 23.18 C6.37 25.89, 4.76 33.6, 3.22 39.84 M9.2 21.26 C7.59 24.55, 7.17 28.72, 3.04 40.26" stroke="#000000" stroke-width="1" fill="none"></path></g></g><g transform="translate(1041 890.766948769197) rotate(0 16.5 12.5)"><text x="0" y="18" font-family="Virgil, Segoe UI Emoji" font-size="20px" fill="#000000" text-anchor="start" style="white-space: pre;" direction="ltr">Yes</text></g><g stroke-linecap="round"><g transform="translate(906 767.266948769197) rotate(0 -333.39544532595073 158.659433878936)"><path d="M0.61 0.3 C-190.37 0.56, -380.75 1.02, -666.45 -2.15 M-0.33 0.29 C-135.87 1.57, -270.85 1.35, -666.94 -1.31 M-666.33 -2.64 C-666.33 107.97, -666.31 216.66, -666.34 319.96 M-667.03 -2.08 C-665.44 97.62, -664.55 197.46, -667.41 319.54" stroke="#000000" stroke-width="1" fill="none"></path></g><g transform="translate(906 767.266948769197) rotate(0 -333.39544532595073 158.659433878936)"><path d="M-675.69 291.94 C-674.12 298.58, -670.87 308.9, -666.03 317.92 M-678.04 291.92 C-676.08 296.33, -672.76 302.29, -667.26 320.02" stroke="#000000" stroke-width="1" fill="none"></path></g><g transform="translate(906 767.266948769197) rotate(0 -333.39544532595073 158.659433878936)"><path d="M-655.17 292.27 C-659.46 298.9, -662.07 309.13, -666.03 317.92 M-657.52 292.24 C-659.73 296.74, -660.58 302.65, -667.26 320.02" stroke="#000000" stroke-width="1" fill="none"></path></g></g><g transform="translate(543 742.766948769197) rotate(0 12.5 12.5)"><text x="0" y="18" font-family="Virgil, Segoe UI Emoji" font-size="20px" fill="#000000" text-anchor="start" style="white-space: pre;" direction="ltr">No</text></g><g stroke-linecap="round" transform="translate(806 1095.766948769197) rotate(0 240 41.5)"><path d="M-0.15 0.31 C181.99 -0.2, 362.84 0.57, 480.32 0.52 M-0.02 0.27 C116.6 -0.98, 232.96 -0.4, 480.06 0.4 M478.49 -1.09 C480.85 23.92, 479.17 52.48, 481.6 82.44 M479.16 0.01 C479.01 20.08, 480.06 38.54, 479.04 83.34 M479.59 82.18 C305.23 83.63, 130.6 82.72, -0.57 83.16 M480.09 83.4 C288.87 84.16, 97.09 83.58, 0.04 82.92 M1.12 83.01 C-2.42 53.16, -0.54 23.33, 0.87 0.21 M0.67 82.8 C0.21 51.96, -0.45 18.61, 0.14 -0.74" stroke="#000000" stroke-width="1" fill="none"></path></g><g transform="translate(824 1112.766948769197) rotate(0 175.5 25)"><text x="0" y="18" font-family="Virgil, Segoe UI Emoji" font-size="20px" fill="#000000" text-anchor="start" style="white-space: pre;" direction="ltr">OAuth2AuthorizationSuccessHandler</text><text x="0" y="43" font-family="Virgil, Segoe UI Emoji" font-size="20px" fill="#000000" text-anchor="start" style="white-space: pre;" direction="ltr">  .onAuthorizationSuccess()</text></g><g stroke-linecap="round"><g transform="translate(669.6374780683861 463.8638926671373) rotate(0 59.80840575237869 337.66467009242615)"><path d="M-0.26 0.46 C-1.85 216.03, -2.39 431.63, -0.76 673.66 M-0.32 0.35 C1 179.04, 0.85 357.34, -0.92 673.34 M-0.42 671.96 C27.61 673.92, 55.05 674.19, 121.52 674.98 M-1.9 672.29 C46.48 673.45, 91.74 673.05, 121.12 673.92" stroke="#000000" stroke-width="1" fill="none"></path></g><g transform="translate(669.6374780683861 463.8638926671373) rotate(0 59.80840575237869 337.66467009242615)"><path d="M92.12 684.84 C101.74 681.12, 110.28 677.66, 121.72 675.7 M91.95 684.58 C99.86 681.67, 107.69 677.78, 121.32 674.9" stroke="#000000" stroke-width="1" fill="none"></path></g><g transform="translate(669.6374780683861 463.8638926671373) rotate(0 59.80840575237869 337.66467009242615)"><path d="M92.47 664.32 C101.87 667.18, 110.29 670.3, 121.72 675.7 M92.3 664.06 C100.22 666.6, 107.96 668.17, 121.32 674.9" stroke="#000000" stroke-width="1" fill="none"></path></g></g><g stroke-linecap="round" transform="translate(896 1250.766948769197) rotate(0 240 41.5)"><path d="M-0.27 -0.84 C186.28 1.35, 374.41 1.16, 480.72 0.41 M0.36 -0.42 C120.41 -0.32, 241.35 -0.69, 480.43 -0.2 M478.54 -1.23 C479.33 20.69, 481.59 42.21, 480.24 82.18 M479.94 0.22 C479.07 22.3, 479.28 43.73, 480.98 83.95 M479.44 83.62 C363.76 81.28, 246.32 81.98, -0.72 82.84 M480.39 83.12 C349.27 84.69, 219.18 84.66, -0.34 83.1 M0.43 81.64 C-0.55 51.43, -0.5 23.4, 0.91 -0.22 M-0.22 82.45 C0.7 61.02, -0.47 37.87, -0.69 0.99" stroke="#000000" stroke-width="1" fill="none"></path></g><g transform="translate(914 1267.766948769197) rotate(0 166.5 25)"><text x="0" y="18" font-family="Virgil, Segoe UI Emoji" font-size="20px" fill="#000000" text-anchor="start" style="white-space: pre;" direction="ltr">OAuth2AuthorizedClientRepository</text><text x="0" y="43" font-family="Virgil, Segoe UI Emoji" font-size="20px" fill="#000000" text-anchor="start" style="white-space: pre;" direction="ltr">  .saveAuthorizedClient()</text></g><g stroke-linecap="round"><g transform="translate(846 1189.266948769197) rotate(0 18.282920490019023 53.6087737865746)"><path d="M-1.84 -0.43 C0.68 37.99, -1.66 75.4, -0.5 107.41 M0.43 0.81 C-0.28 21.73, 1.64 42.1, 0.88 105.19 M-0.73 104.57 C11.72 107.12, 24.71 103.81, 37.03 107.64 M0.64 105.46 C9.51 104.86, 19.13 105.21, 38.4 106.14" stroke="#000000" stroke-width="1" fill="none"></path></g><g transform="translate(846 1189.266948769197) rotate(0 18.282920490019023 53.6087737865746)"><path d="M18.53 111.43 C27.62 110.53, 31.73 108.85, 37.93 107.48 M20.68 112.6 C23.01 110.98, 28.5 108.83, 39.24 105.37" stroke="#000000" stroke-width="1" fill="none"></path></g><g transform="translate(846 1189.266948769197) rotate(0 18.282920490019023 53.6087737865746)"><path d="M19.11 98.44 C27.95 102.09, 31.87 104.95, 37.93 107.48 M21.26 99.61 C23.56 100.62, 28.93 101.09, 39.24 105.37" stroke="#000000" stroke-width="1" fill="none"></path></g></g><g stroke-linecap="round" transform="translate(10 1099.766948769197) rotate(0 240 41.5)"><path d="M0.28 -0.2 C123.93 -1.01, 248.03 -1.11, 480.33 0.18 M0.31 0.29 C132.89 -0.17, 266.16 -0.73, 480.33 -0.34 M481.43 0.24 C479.25 18.98, 480.52 33.58, 478.34 83.92 M480.3 0.06 C480.24 28.29, 481.27 56.34, 479.33 83.51 M480.24 82.56 C315.95 82.78, 152.06 82.76, -0.05 82.72 M480.3 82.71 C355.69 84.13, 231.66 84.7, 0.02 82.79 M1.04 83.62 C-0.99 56.42, -1.42 27.26, 1.29 -0.62 M-0.04 83.26 C0.24 58.31, 1.22 34.3, 0.32 -0.65" stroke="#000000" stroke-width="1" fill="none"></path></g><g transform="translate(27 1116.766948769197) rotate(0 170 25)"><text x="0" y="18" font-family="Virgil, Segoe UI Emoji" font-size="20px" fill="#000000" text-anchor="start" style="white-space: pre;" direction="ltr">OAuth2AuthorizationFailureHandler</text><text x="0" y="43" font-family="Virgil, Segoe UI Emoji" font-size="20px" fill="#000000" text-anchor="start" style="white-space: pre;" direction="ltr">  .onAuthorizationFailure()</text></g><g stroke-linecap="round" transform="translate(457.5 1431.766948769197) rotate(0 220.5 25.5)"><path d="M-0.71 -0.55 C126.02 1.82, 251.02 2.18, 441.87 -0.26 M-0.4 -0.03 C134.01 -2.48, 268.3 -2.1, 440.83 0.35 M442.55 0.42 C441.72 10.66, 440.33 19, 442.12 50.91 M441.67 0.23 C441.54 16.12, 440.53 33.73, 440.17 50.13 M441.51 51.5 C303.35 51.36, 165.55 51.22, -0.79 50.86 M441.14 50.53 C267.65 53.25, 94.74 53.24, 0.13 51.29 M-1.03 49.81 C1.24 35.15, 1.89 15.29, -1.92 -0.06 M-0.14 50.42 C-0.49 34.02, -1.41 16.2, -0.75 0.39" stroke="#000000" stroke-width="1" fill="none"></path></g><g transform="translate(463.5 1445.766948769197) rotate(0 211 12.5)"><text x="0" y="18" font-family="Virgil, Segoe UI Emoji" font-size="20px" fill="#000000" text-anchor="start" style="white-space: pre;" direction="ltr">throw ClientAuthorizationRequiredException</text></g><g stroke-linecap="round" transform="translate(99 1247.766948769197) rotate(0 240 41.5)"><path d="M0 0.71 C174.38 2.9, 348.07 1.95, 480.34 0.07 M-0.12 -0.19 C108.06 1.19, 216.67 1.09, 479.65 0.1 M481.53 -1.71 C478.18 19.97, 481.15 36.46, 479.53 82.26 M479.21 0.59 C478.32 23.62, 479.49 48.81, 479.45 82.32 M480.06 83.41 C371.48 85.13, 262.34 84.45, 0.53 83.24 M480.37 83.39 C337.75 84.44, 195.43 84.92, 0.28 82.7 M1.9 84.43 C-1.57 59.97, -0.15 34, -0.52 -1.92 M-0.97 83.49 C-0.19 65, 0.09 45.85, 0.21 0.81" stroke="#000000" stroke-width="1" fill="none"></path></g><g transform="translate(116 1264.766948769197) rotate(0 166.5 25)"><text x="0" y="18" font-family="Virgil, Segoe UI Emoji" font-size="20px" fill="#000000" text-anchor="start" style="white-space: pre;" direction="ltr">OAuth2AuthorizedClientRepository</text><text x="0" y="43" font-family="Virgil, Segoe UI Emoji" font-size="20px" fill="#000000" text-anchor="start" style="white-space: pre;" direction="ltr">  .removeAuthorizedClient()</text></g><g stroke-linecap="round"><g transform="translate(48 1190.266948769197) rotate(0 18.981532473117113 53.19627950619906)"><path d="M-1.01 0.55 C-0.92 31.77, -0.46 61.11, -1.09 107.1 M0.03 -0.71 C-0.28 28.92, -0.34 59.2, 0.26 106.28 M0.26 105.28 C9.76 105.76, 24.93 107.48, 39.05 106.01 M-0.84 106.91 C14.44 106.42, 30.28 106.88, 37.56 105.07" stroke="#000000" stroke-width="1" fill="none"></path></g><g transform="translate(48 1190.266948769197) rotate(0 18.981532473117113 53.19627950619906)"><path d="M19.71 114.3 C25.21 112, 30.55 108.05, 36.53 106.12 M20.7 113.11 C25.05 111.21, 29.65 109.85, 37.81 105.34" stroke="#000000" stroke-width="1" fill="none"></path></g><g transform="translate(48 1190.266948769197) rotate(0 18.981532473117113 53.19627950619906)"><path d="M18.07 101.41 C23.98 102.84, 29.81 102.64, 36.53 106.12 M19.05 100.21 C23.86 101.88, 28.91 104.07, 37.81 105.34" stroke="#000000" stroke-width="1" fill="none"></path></g></g><g stroke-linecap="round" transform="translate(440 1562.766948769197) rotate(0 240 41.5)"><path d="M-0.19 -0.76 C159.13 0.27, 316.43 -0.24, 479.22 -0.75 M-0.19 0.41 C104.92 -0.74, 210.54 -0.99, 479.93 0.17 M480.33 -0.52 C480.73 29.12, 481.74 60.1, 479.04 84.33 M480.18 0.02 C479.69 23.32, 479.91 48.14, 479.74 83.28 M480.1 82.2 C317.95 82.57, 156.37 82.3, -0.79 83.31 M479.99 82.73 C326.94 84.92, 173.58 84.43, 0.05 83.03 M-1.45 82.39 C-1.76 65.07, -0.39 44.21, 0.78 -0.71 M-0.39 82.98 C-0.78 51.74, -0.94 19.19, 0.5 0.54" stroke="#000000" stroke-width="1" fill="none"></path></g><g transform="translate(454 1580.766948769197) rotate(0 209 25)"><text x="0" y="18" font-family="Virgil, Segoe UI Emoji" font-size="20px" fill="#000000" text-anchor="start" style="white-space: pre;" direction="ltr">OAuth2AuthorizationRequestRedirectFilter</text><text x="0" y="43" font-family="Virgil, Segoe UI Emoji" font-size="20px" fill="#000000" text-anchor="start" style="white-space: pre;" direction="ltr">  .doFilterInternal()</text></g><g stroke-linecap="round"><g transform="translate(655 1495.266948769197) rotate(0 0.4918387700241169 26.316288803704197)"><path d="M-0.37 -0.68 C-1.51 22.09, -1.21 40.53, 1.96 52.48 M0.47 0.67 C-0.43 17.16, 1.02 32.36, 1.48 53.31" stroke="#000000" stroke-width="1" fill="none"></path></g><g transform="translate(655 1495.266948769197) rotate(0 0.4918387700241169 26.316288803704197)"><path d="M-8.98 27.58 C-6.66 39.28, -2.91 46.71, 2.44 51.79 M-8.13 28.93 C-6.22 36.58, -2 42.98, 1.96 52.62" stroke="#000000" stroke-width="1" fill="none"></path></g><g transform="translate(655 1495.266948769197) rotate(0 0.4918387700241169 26.316288803704197)"><path d="M9.49 26.96 C4.78 39.03, 1.52 46.69, 2.44 51.79 M10.33 28.31 C6.63 36.22, 5.23 42.81, 1.96 52.62" stroke="#000000" stroke-width="1" fill="none"></path></g></g><g stroke-linecap="round" transform="translate(513 1709.766948769197) rotate(0 240 41.5)"><path d="M-0.6 -0.78 C157.13 0.29, 314.54 0.03, 479.36 -0.61 M0.04 -0.15 C145.74 -1.19, 290.31 -1.64, 479.65 -0.33 M479.14 1.6 C479.69 19.56, 481.11 38.92, 480.86 81.9 M480.44 0.88 C480.79 22.73, 480.78 46.08, 479.91 82.92 M479.81 83.29 C335.09 84.24, 189.93 83.05, 0.41 82.3 M480.12 83.39 C371.37 84.2, 262.99 84.33, 0.12 83.14 M-0.25 81.32 C1.1 53.94, 2.16 23.83, -0.67 0.65 M-0.05 82.84 C0.82 59.98, -0.26 38.01, 0.03 0.06" stroke="#000000" stroke-width="1" fill="none"></path></g><g transform="translate(531 1726.766948769197) rotate(0 183.5 25)"><text x="0" y="18" font-family="Virgil, Segoe UI Emoji" font-size="20px" fill="#000000" text-anchor="start" style="white-space: pre;" direction="ltr">OAuth2AuthorizationRequestResolver</text><text x="0" y="43" font-family="Virgil, Segoe UI Emoji" font-size="20px" fill="#000000" text-anchor="start" style="white-space: pre;" direction="ltr">  .resolve()</text></g><g stroke-linecap="round"><g transform="translate(465 1662.266948769197) rotate(0 18.52768548205495 48.44729665325201)"><path d="M-0.94 -1.08 C1.42 20.32, 2.79 41.43, 1.78 96.45 M-0.88 0.3 C1.68 29.42, 0.68 58.62, 0.57 96.89 M0.18 96.37 C13.94 96.93, 22.53 98.33, 38 97.9 M1.75 96.56 C8.4 98, 17.14 97.75, 36.39 95.41" stroke="#000000" stroke-width="1" fill="none"></path></g><g transform="translate(465 1662.266948769197) rotate(0 18.52768548205495 48.44729665325201)"><path d="M19.35 102.34 C23.76 102.36, 28.09 102.01, 37.09 94.46 M19.41 103.58 C25.55 101.47, 29.21 99.29, 36 94.86" stroke="#000000" stroke-width="1" fill="none"></path></g><g transform="translate(465 1662.266948769197) rotate(0 18.52768548205495 48.44729665325201)"><path d="M18.06 90.08 C22.83 92.59, 27.42 94.72, 37.09 94.46 M18.11 91.32 C24.74 92.88, 28.78 94.34, 36 94.86" stroke="#000000" stroke-width="1" fill="none"></path></g></g><g stroke-linecap="round"><g transform="translate(449.9999999999999 1659.266948769197) rotate(0 31.556682267656925 153.78326698742364)"><path d="M-0.93 -0.24 C1.88 76.49, -0.08 154.14, 1.33 306.06 M0.48 -0.05 C0.32 80.36, 1.12 158.72, 0.91 305.74 M-0.41 306.8 C14.56 307.03, 25.28 304.51, 64.03 307.81 M2.12 305.32 C22.05 305.66, 44.62 305.74, 64.04 305.42" stroke="#000000" stroke-width="1" fill="none"></path></g><g transform="translate(449.9999999999999 1659.266948769197) rotate(0 31.556682267656925 153.78326698742364)"><path d="M34.68 315.63 C44.57 313.6, 48.36 312.72, 63.8 306.19 M36.63 315.9 C43.66 314.4, 51.55 309.84, 63.22 305.76" stroke="#000000" stroke-width="1" fill="none"></path></g><g transform="translate(449.9999999999999 1659.266948769197) rotate(0 31.556682267656925 153.78326698742364)"><path d="M34.46 295.11 C44.44 298.21, 48.28 302.46, 63.8 306.19 M36.42 295.38 C43.47 299.23, 51.42 300.03, 63.22 305.76" stroke="#000000" stroke-width="1" fill="none"></path></g></g><g stroke-linecap="round" transform="translate(437.5 2156.766948769197) rotate(0 220.5 25.5)"><path d="M0.69 0.08 C137.15 1.84, 273.09 1.28, 441.54 -0.12 M0.42 0.08 C97.17 -0.71, 193.6 -0.29, 441.13 0.02 M441.95 0.53 C441.65 17.21, 441.5 34.96, 442.43 49.72 M441.18 -0.29 C441.23 17.53, 440.1 34.24, 441.59 50.78 M440.39 51.41 C321.83 53.61, 203.8 53.44, -0.88 50.47 M441.25 51.08 C343.33 51.73, 245.9 51.68, 0.31 51.39 M0.23 50.59 C0.66 36.18, 1.05 22.06, 0.76 0.35 M0.63 50.69 C0.97 39.51, -0.91 27.55, 0.87 0.31" stroke="#000000" stroke-width="1" fill="none"></path></g><g transform="translate(456.5 2173.766948769197) rotate(0 203 12.5)"><text x="0" y="18" font-family="Virgil, Segoe UI Emoji" font-size="20px" fill="#000000" text-anchor="start" style="white-space: pre;" direction="ltr">/authorize/oauth2/code/{registrationId}</text></g><g stroke-linecap="round"><g transform="translate(638 2101.266948769197) rotate(0 0.8081400761059854 23.40588446520269)"><path d="M0 0.25 C-0.08 16.83, -0.13 28.56, 0.5 46.68 M0.84 -0.05 C0.47 12.42, 1.04 26.22, 1.66 46.87" stroke="#000000" stroke-width="1" fill="none"></path></g><g transform="translate(638 2101.266948769197) rotate(0 0.8081400761059854 23.40588446520269)"><path d="M-6.87 25.75 C-4.68 34.14, -2.23 37.73, 1.16 47.55 M-6.03 25.45 C-4.23 31.03, -1.54 37.92, 2.33 47.73" stroke="#000000" stroke-width="1" fill="none"></path></g><g transform="translate(638 2101.266948769197) rotate(0 0.8081400761059854 23.40588446520269)"><path d="M8.86 25.26 C5.86 33.92, 3.11 37.67, 1.16 47.55 M9.7 24.96 C7.1 30.66, 5.38 37.7, 2.33 47.73" stroke="#000000" stroke-width="1" fill="none"></path></g></g><g stroke-linecap="round" transform="translate(419 2285.766948769197) rotate(0 240 41.5)"><path d="M0.06 -0.85 C178.7 -1.62, 356.42 -2.35, 479.74 0.26 M-0.39 -0.42 C179.28 -0.42, 359.04 -0.24, 480.01 -0.03 M478.97 -0.05 C481.88 29.98, 481.57 62.59, 478.45 81.68 M479.28 0.74 C480.02 20.66, 479.89 40.41, 479.89 83.83 M479.75 82.61 C370.66 80.19, 263.12 81.47, -0.86 83 M480.39 83.04 C362.39 81.62, 244.44 80.86, -0.23 82.83 M0.82 83.37 C-1.8 52.76, 0.16 24.35, -1.93 0.5 M0.95 83.81 C-0.01 56.26, 1.67 29.79, -0.81 -0.81" stroke="#000000" stroke-width="1" fill="none"></path></g><g transform="translate(433 2302.766948769197) rotate(0 181 25)"><text x="0" y="18" font-family="Virgil, Segoe UI Emoji" font-size="20px" fill="#000000" text-anchor="start" style="white-space: pre;" direction="ltr">OAuth2AuthorizationCodeGrantFilter</text><text x="0" y="43" font-family="Virgil, Segoe UI Emoji" font-size="20px" fill="#000000" text-anchor="start" style="white-space: pre;" direction="ltr">  .doFilterInternal()</text></g><g stroke-linecap="round"><g transform="translate(637 2219.266948769197) rotate(0 0.18956646788865328 27.15858094021678)"><path d="M-1.56 -1.47 C0.65 17.44, -0.05 35.66, -0.38 55.79 M0.75 -0.11 C0.29 20.22, 0.27 41.53, 1.94 53.59" stroke="#000000" stroke-width="1" fill="none"></path></g><g transform="translate(637 2219.266948769197) rotate(0 0.18956646788865328 27.15858094021678)"><path d="M-10.91 27.6 C-5.68 37.25, -3.14 46.22, 0.56 55.38 M-8.6 28.95 C-5.09 37.84, -1.12 47.71, 2.88 53.19" stroke="#000000" stroke-width="1" fill="none"></path></g><g transform="translate(637 2219.266948769197) rotate(0 0.18956646788865328 27.15858094021678)"><path d="M7.5 26.08 C6.96 36.21, 3.72 45.67, 0.56 55.38 M9.81 27.43 C6.17 36.92, 3 47.38, 2.88 53.19" stroke="#000000" stroke-width="1" fill="none"></path></g></g><g stroke-linecap="round"><g transform="translate(634 767.2669487691969) rotate(0 -1.2460720088827202 325.7981416027993)"><path d="M-0.27 0.6 C0.34 179.95, 0.61 360.65, -1.22 651.48 M-0.21 0.11 C-2.28 171.52, -3.34 342.83, -2.23 650.62" stroke="#000000" stroke-width="1" fill="none"></path></g><g transform="translate(634 767.2669487691969) rotate(0 -1.2460720088827202 325.7981416027993)"><path d="M-13.23 623.95 C-11.39 628.5, -6.47 636.46, -0.28 651.83 M-13.06 622.73 C-9.35 630.42, -7.98 637.91, -2.81 649.68" stroke="#000000" stroke-width="1" fill="none"></path></g><g transform="translate(634 767.2669487691969) rotate(0 -1.2460720088827202 325.7981416027993)"><path d="M7.29 623.91 C3.43 628.55, 2.66 636.51, -0.28 651.83 M7.46 622.69 C5.78 630.46, 1.75 637.96, -2.81 649.68" stroke="#000000" stroke-width="1" fill="none"></path></g></g></svg>