<svg version="1.1" xmlns="http://www.w3.org/2000/svg" viewBox="0 0 1628.9999999999995 2222.166666666667" width="1628.9999999999995" height="2222.166666666667">
  <!-- svg-source:excalidraw -->
  
  <defs>
    <style>
      @font-face {
        font-family: "Virgil";
        src: url("https://excalidraw.com/Virgil.woff2");
      }
      @font-face {
        font-family: "Cascadia";
        src: url("https://excalidraw.com/Cascadia.woff2");
      }
    </style>
  </defs>
  <rect x="0" y="0" width="1628.9999999999995" height="2222.166666666667" fill="#ffffff"></rect><g transform="translate(10 10) rotate(0 301 22.5)"><text x="0" y="32" font-family="Virgil, Segoe UI Emoji" font-size="36px" fill="#000000" text-anchor="start" style="white-space: pre;" direction="ltr">Spring Security OAuth2 Login Flow</text></g><g stroke-linecap="round" transform="translate(91 109) rotate(0 240 25.5)"><path d="M-0.21 0.5 C145.69 -1.48, 291.76 -0.93, 480.55 0.47 M0.33 -0.16 C135.95 1.05, 272.02 1.58, 480.09 -0.23 M481.1 1.73 C479.34 15.18, 478.71 31.21, 479.35 50.4 M480.79 0.5 C479.7 10.02, 479.42 20.25, 479.99 50.67 M479.93 50.36 C368.58 50.47, 255.15 49.68, 0.42 51.81 M479.97 51.24 C338.39 49.85, 196.13 50.6, -0.28 51.26 M1.75 49.07 C0.64 35.3, -0.66 22.66, 1.47 -0.26 M-0.99 50.51 C0.02 36.21, 0.31 19.55, 0.27 -0.8" stroke="#000000" stroke-width="1" fill="none"></path></g><g transform="translate(136 126) rotate(0 195.5 12.5)"><text x="0" y="18" font-family="Virgil, Segoe UI Emoji" font-size="20px" fill="#000000" text-anchor="start" style="white-space: pre;" direction="ltr">/oauth2/authorization/{registrationId}</text></g><g stroke-linecap="round" transform="translate(93 212.5) rotate(0 240 41.5)"><path d="M-0.18 0.84 C131.15 -0.13, 263.15 -0.61, 479.83 -0.78 M0.06 0.38 C99.81 1.43, 198.86 1.24, 480.24 0.06 M479.93 1.01 C480.47 18.14, 480.09 37.61, 479.27 81.23 M479.19 -0.83 C479.41 26.49, 479.53 53.63, 479.29 83.41 M480.23 83.13 C297.48 83.09, 116.05 82.45, 0.28 82.59 M479.78 83.03 C366.27 82.75, 252.63 82.76, 0.34 82.94 M-1.89 84.35 C-0.17 54, 1.26 26.31, -0.64 1.42 M0.08 83.12 C-0.64 53.79, -0.34 25.08, 0.53 -0.93" stroke="#000000" stroke-width="1" fill="none"></path></g><g transform="translate(124 228.5) rotate(0 209 25)"><text x="0" y="18" font-family="Virgil, Segoe UI Emoji" font-size="20px" fill="#000000" text-anchor="start" style="white-space: pre;" direction="ltr">OAuth2AuthorizationRequestRedirectFilter</text><text x="0" y="43" font-family="Virgil, Segoe UI Emoji" font-size="20px" fill="#000000" text-anchor="start" style="white-space: pre;" direction="ltr">  .doFilterInternal()</text></g><g stroke-linecap="round" transform="translate(193 364.5) rotate(0 240 41.5)"><path d="M-0.65 -0.11 C102.95 0.53, 207.02 0.37, 480.75 0.77 M-0.33 -0.19 C157 0.96, 314.32 1.4, 480.41 -0.16 M478.21 0.75 C479.16 22.57, 479.61 42.59, 478 82.94 M480.77 0.03 C480.42 32.37, 480.5 65.79, 479.08 83.51 M479.89 82.47 C351.7 80.83, 223.9 81.27, -0.16 82.4 M480.2 82.97 C315.68 82.5, 151.61 82.44, 0.05 82.87 M0.04 82.97 C0.72 58.1, 0.88 32.05, -0.87 1.29 M0.61 83.96 C0.34 64.26, -1.11 46.83, -0.82 0.1" stroke="#000000" stroke-width="1" fill="none"></path></g><g transform="translate(212 381.5) rotate(0 222 25)"><text x="0" y="18" font-family="Virgil, Segoe UI Emoji" font-size="20px" fill="#000000" text-anchor="start" style="white-space: pre;" direction="ltr">DefaultOAuth2AuthorizationRequestResolver</text><text x="0" y="43" font-family="Virgil, Segoe UI Emoji" font-size="20px" fill="#000000" text-anchor="start" style="white-space: pre;" direction="ltr">  .resolve()</text></g><g stroke-linecap="round"><g transform="translate(323.5909682846441 172) rotate(0 1.9180529180407575 16.965092391041082)"><path d="M0.57 0.23 C0.86 5.92, 1.99 28.81, 2.32 34.63 M-0.59 -0.7 C-0.01 4.61, 3.5 27.16, 4.43 32.84" stroke="#000000" stroke-width="1" fill="none"></path></g><g transform="translate(323.5909682846441 172) rotate(0 1.9180529180407575 16.965092391041082)"><path d="M-3.53 16.24 C0 21.79, 3.61 29.47, 5.72 31.69 M-3.71 18.7 C-1.29 23.06, 1.53 27.3, 4.58 32.47" stroke="#000000" stroke-width="1" fill="none"></path></g><g transform="translate(323.5909682846441 172) rotate(0 1.9180529180407575 16.965092391041082)"><path d="M8.01 14.41 C7.51 20.66, 7.07 28.98, 5.72 31.69 M7.84 16.87 C6.61 21.72, 5.79 26.53, 4.58 32.47" stroke="#000000" stroke-width="1" fill="none"></path></g></g><g stroke-linecap="round" transform="translate(202 536) rotate(0 114.5 114.5)"><path d="M118.44 -0.58 C130.88 -1.85, 145.43 3.22, 157.6 8.37 C169.77 13.52, 181.79 21.39, 191.47 30.3 C201.15 39.21, 209.69 50.35, 215.68 61.84 C221.68 73.33, 225.76 86.23, 227.45 99.24 C229.14 112.25, 228.43 127.11, 225.83 139.88 C223.22 152.66, 218.74 164.91, 211.83 175.89 C204.92 186.87, 194.69 197.75, 184.37 205.77 C174.05 213.8, 162.3 220.22, 149.94 224.03 C137.57 227.84, 123.28 229.24, 110.17 228.62 C97.06 228, 83.41 225.12, 71.29 220.32 C59.16 215.53, 46.97 208.77, 37.43 199.85 C27.89 190.93, 20.06 178.37, 14.05 166.8 C8.03 155.23, 3.37 143.19, 1.34 130.41 C-0.69 117.63, -0.96 103.18, 1.86 90.15 C4.68 77.12, 11.02 63.24, 18.24 52.24 C25.47 41.23, 34.96 32, 45.2 24.13 C55.43 16.27, 66.06 8.88, 79.65 5.06 C93.24 1.24, 117.68 1.55, 126.73 1.22 C135.78 0.88, 134.03 1.39, 133.95 3.08 M113.9 -0.54 C126.27 -2.25, 140.63 2.43, 152.63 6.95 C164.62 11.47, 175.6 18.41, 185.85 26.57 C196.1 34.74, 207.21 44.89, 214.14 55.94 C221.08 66.99, 225.13 80.08, 227.45 92.89 C229.78 105.71, 230.25 119.62, 228.09 132.83 C225.92 146.05, 221.03 160.51, 214.49 172.18 C207.95 183.84, 198.69 194.58, 188.87 202.83 C179.05 211.08, 167.67 217.49, 155.58 221.66 C143.49 225.82, 129.38 227.59, 116.35 227.8 C103.32 228.02, 89.88 227.2, 77.38 222.93 C64.88 218.67, 51.85 210.68, 41.37 202.21 C30.9 193.75, 21.15 183.31, 14.55 172.13 C7.94 160.95, 3.89 147.98, 1.73 135.14 C-0.43 122.29, -0.46 107.66, 1.58 95.07 C3.63 82.47, 7.81 70.85, 13.99 59.56 C20.16 48.27, 28.65 35.82, 38.62 27.33 C48.58 18.83, 61.49 13.07, 73.76 8.58 C86.03 4.1, 105.64 1.32, 112.24 0.44 C118.83 -0.44, 113.34 1.34, 113.33 3.31" stroke="#000000" stroke-width="1" fill="none"></path></g><g transform="translate(216 639) rotate(0 101.5 12.5)"><text x="0" y="18" font-family="Virgil, Segoe UI Emoji" font-size="20px" fill="#000000" text-anchor="start" style="white-space: pre;" direction="ltr">Authorization Server</text></g><g stroke-linecap="round"><g transform="translate(313.68330152403723 463.5000000000001) rotate(0 0.7205494466529672 26.94820533947916)"><path d="M0.72 0.54 C0.85 9.56, 1.71 45.4, 1.8 54.11 M-0.36 -0.22 C-0.37 8.5, 1.28 43.54, 1.48 52.59" stroke="#000000" stroke-width="1" fill="none"></path></g><g transform="translate(313.68330152403723 463.5000000000001) rotate(0 0.7205494466529672 26.94820533947916)"><path d="M-7.55 30.01 C-2.73 38.51, -1.06 47.86, 1.67 52.3 M-8.29 27.65 C-4.81 37.43, -0.93 48.26, 1.39 52.24" stroke="#000000" stroke-width="1" fill="none"></path></g><g transform="translate(313.68330152403723 463.5000000000001) rotate(0 0.7205494466529672 26.94820533947916)"><path d="M10.55 29.37 C8.4 38.22, 3.1 47.83, 1.67 52.3 M9.81 27.01 C6.15 37.06, 2.9 48.15, 1.39 52.24" stroke="#000000" stroke-width="1" fill="none"></path></g></g><g stroke-linecap="round" transform="translate(91 835.5) rotate(0 240 25.5)"><path d="M0.5 -0.22 C160.37 -0.34, 320.95 0.62, 479.41 0.41 M-0.1 0.39 C103.97 -0.75, 207.49 -1.2, 479.83 0.21 M478.24 0.8 C479.11 19.75, 481.28 39.27, 478.33 52.14 M479.17 -0.86 C479.48 17.35, 479.36 32.16, 480.77 50.62 M480.66 51.79 C291.7 53.38, 103.38 53.61, 0.71 50.81 M479.59 50.67 C359.87 49.4, 239.04 49.37, 0.01 50.64 M1.11 52.41 C-1.54 35.48, -0.99 20.01, 0.98 1.64 M0.4 51.24 C-0.22 31.89, 0.75 12.57, -0.13 0.73" stroke="#000000" stroke-width="1" fill="none"></path></g><g transform="translate(158 848.5) rotate(0 177 12.5)"><text x="0" y="18" font-family="Virgil, Segoe UI Emoji" font-size="20px" fill="#000000" text-anchor="start" style="white-space: pre;" direction="ltr">/login/oauth2/code/{registrationId}</text></g><g stroke-linecap="round"><g transform="translate(325.9039755467006 783.7302751320913) rotate(0 0.5832474110321755 20.85001209729188)"><path d="M-0.37 -0.68 C-0.51 6.03, -0.71 33.99, -0.56 40.82 M1.64 1.58 C1.82 8.44, 1.87 35.75, 1.54 42.38" stroke="#000000" stroke-width="1" fill="none"></path></g><g transform="translate(325.9039755467006 783.7302751320913) rotate(0 0.5832474110321755 20.85001209729188)"><path d="M-6.19 21.16 C-2.74 29.22, -1.48 33.92, 2.46 41.68 M-4.9 22.32 C-2.31 28.94, -0.93 34.5, 1.92 42.35" stroke="#000000" stroke-width="1" fill="none"></path></g><g transform="translate(325.9039755467006 783.7302751320913) rotate(0 0.5832474110321755 20.85001209729188)"><path d="M7.75 21.43 C6.66 29.36, 3.37 33.97, 2.46 41.68 M9.05 22.59 C7.44 29.2, 4.63 34.68, 1.92 42.35" stroke="#000000" stroke-width="1" fill="none"></path></g></g><g stroke-linecap="round" transform="translate(89 949.5) rotate(0 240 41.5)"><path d="M0.32 -0.04 C99.52 0.25, 198.82 -0.68, 480.4 -0.04 M0.13 -0.27 C169.51 -0.42, 340.08 -0.31, 479.68 0.07 M480.93 1.36 C480.33 28, 478.9 58.86, 479.37 84.61 M479.55 0.86 C480.03 31.26, 479.56 61.17, 480.35 82.18 M480.1 83.27 C317.61 82, 153.7 83.48, 0.24 82.88 M480 83.21 C298.9 84.59, 118.07 84.83, -0.17 82.93 M1.82 84.45 C1.01 65.08, 0.07 47.94, -0.56 -1.68 M0.74 83.88 C0.27 66.13, 1.26 48.79, -0.88 -0.69" stroke="#000000" stroke-width="1" fill="none"></path></g><g transform="translate(120 965.5) rotate(0 190.5 25)"><text x="0" y="18" font-family="Virgil, Segoe UI Emoji" font-size="20px" fill="#000000" text-anchor="start" style="white-space: pre;" direction="ltr">AbstractAuthenticationProcessingFilter</text><text x="0" y="43" font-family="Virgil, Segoe UI Emoji" font-size="20px" fill="#000000" text-anchor="start" style="white-space: pre;" direction="ltr">  .doFilterInternal()</text></g><g stroke-linecap="round" transform="translate(251 1101.5) rotate(0 240 41.5)"><path d="M0.43 0.68 C164.89 0.13, 331.98 0.28, 480.61 0.22 M0.25 -0.22 C188.91 -0.59, 378.02 0.01, 479.64 -0.02 M481.48 1.12 C479.67 31.28, 480.18 65.36, 478.23 82.12 M480.08 0.09 C480.97 26.98, 479.71 53.48, 480.78 82.07 M480.78 82.99 C311.57 80.75, 141.83 80.28, -0.47 83.26 M479.74 82.75 C330.49 84.95, 180.29 84.49, 0.13 82.87 M0.22 84.01 C-1.04 64.49, 1.83 46.51, -0.04 0.55 M-0.06 83.5 C-0.4 61.03, 0.35 37.66, -0.33 -0.68" stroke="#000000" stroke-width="1" fill="none"></path></g><g transform="translate(282 1117.5) rotate(0 157 25)"><text x="0" y="18" font-family="Virgil, Segoe UI Emoji" font-size="20px" fill="#000000" text-anchor="start" style="white-space: pre;" direction="ltr">OAuth2LoginAuthenticationFilter</text><text x="0" y="43" font-family="Virgil, Segoe UI Emoji" font-size="20px" fill="#000000" text-anchor="start" style="white-space: pre;" direction="ltr">  .doFilterInternal()</text></g><g stroke-linecap="round"><g transform="translate(329.53936736289506 900) rotate(0 0.7273311537885547 19.03126499962525)"><path d="M0.84 -0.77 C1.02 5.43, 1.63 31.44, 1.63 37.88 M-0.17 1.44 C-0.18 7.69, 0.85 32.63, 0.84 38.83" stroke="#000000" stroke-width="1" fill="none"></path></g><g transform="translate(329.53936736289506 900) rotate(0 0.7273311537885547 19.03126499962525)"><path d="M-7.49 21.16 C-5.48 26.15, -3 33.76, 0.66 40.4 M-7.08 21.04 C-2.84 26.88, -0.93 32.76, 1.57 38.47" stroke="#000000" stroke-width="1" fill="none"></path></g><g transform="translate(329.53936736289506 900) rotate(0 0.7273311537885547 19.03126499962525)"><path d="M5.85 20.86 C3.2 26.04, 1.02 33.76, 0.66 40.4 M6.26 20.74 C6.06 26.73, 3.52 32.71, 1.57 38.47" stroke="#000000" stroke-width="1" fill="none"></path></g></g><g stroke-linecap="round" transform="translate(493 1233.5) rotate(0 240 41.5)"><path d="M-0.85 -0.71 C169.25 0.13, 340 -0.21, 480.84 0.21 M0.21 0.04 C129.39 -0.58, 259.21 -0.87, 480.17 0.35 M480.33 -1.18 C479.68 19.05, 478.25 35.37, 481.57 84.15 M480.1 -0.38 C481.48 29.03, 480.89 56.82, 479.53 83.97 M480.72 83 C289.37 84.73, 99.9 84.74, -0.08 83.85 M479.84 83.4 C347.88 83.18, 215.24 83.18, -0.11 82.95 M0.27 84.4 C-1.39 62.05, -0.84 45.94, -1.85 -0.76 M-0.17 82.68 C0.12 53.2, -0.14 24.7, 0.96 -0.54" stroke="#000000" stroke-width="1" fill="none"></path></g><g transform="translate(524 1249.5) rotate(0 111 25)"><text x="0" y="18" font-family="Virgil, Segoe UI Emoji" font-size="20px" fill="#000000" text-anchor="start" style="white-space: pre;" direction="ltr">AuthenticationManager</text><text x="0" y="43" font-family="Virgil, Segoe UI Emoji" font-size="20px" fill="#000000" text-anchor="start" style="white-space: pre;" direction="ltr">  .authenticate()</text></g><g stroke-linecap="round" transform="translate(659.6666666666665 1393.8333333333333) rotate(0 240 41.5)"><path d="M0.73 0.41 C182.51 -0.62, 365.85 -0.76, 479.85 -0.58 M0.06 0.36 C141.48 1.27, 282.54 1.58, 480.11 -0.13 M481.58 0.16 C481.57 33.93, 481.36 65.5, 479.8 83.27 M480.53 0.24 C481.45 32.91, 480.68 66.27, 480.54 83.68 M479.97 82.51 C345.98 84.5, 211 84.01, -0.74 82.18 M479.88 82.82 C364.92 81.83, 250.12 82.07, 0.24 83.42 M1.75 81.43 C-0.71 57.47, -0.46 32.88, 1.58 0.14 M-0.51 83.11 C0.29 65.51, 0.41 49.59, 0.17 -0.82" stroke="#000000" stroke-width="1" fill="none"></path></g><g transform="translate(666.6666666666665 1411.8333333333333) rotate(0 235.5 25)"><text x="0" y="18" font-family="Virgil, Segoe UI Emoji" font-size="20px" fill="#000000" text-anchor="start" style="white-space: pre;" direction="ltr">OAuth2AuthorizationCodeAuthenticationProvider</text><text x="0" y="43" font-family="Virgil, Segoe UI Emoji" font-size="20px" fill="#000000" text-anchor="start" style="white-space: pre;" direction="ltr">  .authenticate()</text></g><g stroke-linecap="round" transform="translate(660 1529.5) rotate(0 240 41.5)"><path d="M-0.51 0.69 C108.27 1.78, 214.49 1.23, 480.07 0.31 M0.32 0.2 C135.94 1.89, 271.46 1.87, 479.75 0.07 M481.33 1.07 C478.23 25.8, 479.05 49.93, 478.02 83.71 M479.6 -0.41 C479.98 22.25, 479.66 46.04, 479.64 83.33 M480.63 82.38 C322.5 82.41, 164.71 82.68, -0.63 83.57 M480.05 82.72 C370.08 84.32, 259.91 84.92, -0.39 83.17 M-1.54 82.98 C0.46 62.4, 1.33 40.84, -0.8 1.09 M-0.75 82.26 C1.37 59.62, 0.73 34.6, -0.72 0.35" stroke="#000000" stroke-width="1" fill="none"></path></g><g transform="translate(667 1547.5) rotate(0 226.5 25)"><text x="0" y="18" font-family="Virgil, Segoe UI Emoji" font-size="20px" fill="#000000" text-anchor="start" style="white-space: pre;" direction="ltr">DefaultAuthorizationCodeTokenResponseClient</text><text x="0" y="43" font-family="Virgil, Segoe UI Emoji" font-size="20px" fill="#000000" text-anchor="start" style="white-space: pre;" direction="ltr">  .getTokenResponse()</text></g><g stroke-linecap="round"><g transform="translate(902.5719317237799 1489.3333333333333) rotate(0 0.3956495082557012 16.251805393414998)"><path d="M-0.94 -0.94 C-0.8 4.57, 1.55 26.55, 1.74 32.17 M0.76 1.18 C0.72 6.94, 0.83 27.95, 1.13 33.45" stroke="#000000" stroke-width="1" fill="none"></path></g><g transform="translate(902.5719317237799 1489.3333333333333) rotate(0 0.3956495082557012 16.251805393414998)"><path d="M-6.15 19.14 C-3.41 22.73, -0.33 28.05, 0.38 34.71 M-5.2 17.51 C-2.62 23.96, 0.15 30.01, 0.59 32.96" stroke="#000000" stroke-width="1" fill="none"></path></g><g transform="translate(902.5719317237799 1489.3333333333333) rotate(0 0.3956495082557012 16.251805393414998)"><path d="M5.03 18.84 C3.57 22.46, 2.47 27.89, 0.38 34.71 M5.97 17.21 C4.32 23.77, 2.85 29.93, 0.59 32.96" stroke="#000000" stroke-width="1" fill="none"></path></g></g><g stroke-linecap="round" transform="translate(1389.9999999999995 1458.5000000000002) rotate(0 114.5 114.5)"><path d="M138.63 2.48 C151.16 3.28, 164.98 10.46, 175.98 17.52 C186.98 24.57, 196.51 34.47, 204.63 44.82 C212.75 55.18, 220.54 67.19, 224.69 79.65 C228.85 92.11, 230.32 106.51, 229.55 119.58 C228.78 132.66, 225.22 146, 220.05 158.11 C214.88 170.22, 207.43 182.57, 198.52 192.26 C189.61 201.95, 178.2 210.13, 166.57 216.25 C154.94 222.37, 141.5 227.44, 128.73 228.99 C115.95 230.54, 102.57 228.65, 89.92 225.54 C77.27 222.43, 63.94 217.22, 52.85 210.33 C41.75 203.43, 31.19 194.37, 23.35 184.18 C15.51 173.98, 9.59 161.65, 5.8 149.16 C2.02 136.68, 0.28 122.31, 0.65 109.28 C1.03 96.25, 3.2 82.92, 8.05 70.98 C12.9 59.05, 20.89 47.47, 29.74 37.68 C38.59 27.88, 49.5 18.25, 61.13 12.22 C72.76 6.19, 86.01 2.87, 99.52 1.51 C113.03 0.14, 134.38 3.09, 142.21 4.04 C150.03 5, 146.86 5.4, 146.49 7.22 M119.86 0.76 C132.31 -0.21, 146.59 4.17, 158.54 9.27 C170.49 14.37, 181.8 22.57, 191.56 31.38 C201.32 40.18, 210.77 50.33, 217.11 62.11 C223.44 73.89, 228.33 89.12, 229.56 102.05 C230.79 114.98, 227.85 127.38, 224.48 139.68 C221.1 151.98, 216.06 164.75, 209.31 175.84 C202.57 186.94, 194.17 198.07, 184.01 206.25 C173.86 214.42, 160.84 221.37, 148.37 224.89 C135.9 228.41, 122.35 228.17, 109.2 227.38 C96.04 226.58, 81.78 224.8, 69.45 220.11 C57.12 215.42, 44.49 208.36, 35.21 199.25 C25.92 190.15, 19.67 177.59, 13.72 165.49 C7.77 153.39, 1.36 139.54, -0.48 126.64 C-2.33 113.74, -0.78 100.5, 2.66 88.08 C6.09 75.66, 12.82 62.91, 20.14 52.11 C27.46 41.31, 36.26 31.17, 46.55 23.27 C56.85 15.38, 69.39 8.49, 81.89 4.74 C94.38 0.99, 115.25 0.97, 121.51 0.78 C127.77 0.59, 119.52 1.94, 119.47 3.61" stroke="#000000" stroke-width="1" fill="none"></path></g><g transform="translate(1403.9999999999995 1561.5000000000002) rotate(0 101.5 12.5)"><text x="0" y="18" font-family="Virgil, Segoe UI Emoji" font-size="20px" fill="#000000" text-anchor="start" style="white-space: pre;" direction="ltr">Authorization Server</text></g><g stroke-linecap="round"><g transform="translate(1154.0000000000005 1573.0889851725456) rotate(0 109.73242526234333 1.5221366850552158)"><path d="M-1.12 -0.62 C35.83 -0.08, 183.72 1.81, 220.58 2.46 M0.5 1.66 C37.39 2.43, 183.25 3.16, 219.69 3.67" stroke="#000000" stroke-width="1" fill="none"></path></g><g transform="translate(1154.0000000000005 1573.0889851725456) rotate(0 109.73242526234333 1.5221366850552158)"><path d="M190.37 13.85 C196.28 11.2, 203.53 11.38, 220.2 3.3 M190.87 13.59 C197.16 12.25, 205.31 8.38, 219.91 3.1" stroke="#000000" stroke-width="1" fill="none"></path></g><g transform="translate(1154.0000000000005 1573.0889851725456) rotate(0 109.73242526234333 1.5221366850552158)"><path d="M190.56 -6.67 C196.3 -5.06, 203.51 -0.63, 220.2 3.3 M191.06 -6.93 C197.39 -3.43, 205.49 -2.47, 219.91 3.1" stroke="#000000" stroke-width="1" fill="none"></path></g></g><g stroke-linecap="round"><g transform="translate(1372.5876709897925 1546.0901977877415) rotate(0 -109.6795811968351 4.258628012936356)"><path d="M0.88 0.7 C-35.95 2.1, -183.65 7.11, -220.23 8.49 M-0.12 0.02 C-36.66 1.05, -181.62 5.45, -218.13 6.65" stroke="#000000" stroke-width="1" fill="none"></path></g><g transform="translate(1372.5876709897925 1546.0901977877415) rotate(0 -109.6795811968351 4.258628012936356)"><path d="M-189.1 -6.4 C-199.41 0.48, -208.58 3.23, -217.75 7.2 M-190.57 -3.66 C-199.97 -0.68, -211.51 4.06, -218.55 6.19" stroke="#000000" stroke-width="1" fill="none"></path></g><g transform="translate(1372.5876709897925 1546.0901977877415) rotate(0 -109.6795811968351 4.258628012936356)"><path d="M-188.46 14.11 C-199.02 13.6, -208.42 8.95, -217.75 7.2 M-189.92 16.85 C-199.4 12.05, -211.19 9.02, -218.55 6.19" stroke="#000000" stroke-width="1" fill="none"></path></g></g><g stroke-linecap="round" transform="translate(662.3333333333333 1708.8333333333333) rotate(0 240 41.5)"><path d="M0.41 -0.63 C105.23 -0.07, 211.17 0.76, 479.91 -0.48 M-0.01 -0.12 C179.79 0.31, 360.57 -0.47, 480.06 -0.38 M481.05 0.21 C479.63 33.59, 481.29 65.08, 480.89 82.36 M480.56 0.12 C480.76 28.36, 479.94 55.72, 480.94 82.89 M480.6 83.05 C311.06 81.47, 142.37 81.91, 0.42 83.55 M480.18 83.01 C346.21 82.08, 213.03 81.92, -0.08 83.02 M0.5 83.19 C-1.77 55.98, -0.18 23.08, -1.46 1.58 M0.42 83.38 C0.65 52.45, 0.73 22.72, -0.73 -0.12" stroke="#000000" stroke-width="1" fill="none"></path></g><g transform="translate(692.3333333333333 1724.8333333333333) rotate(0 166.5 25)"><text x="0" y="18" font-family="Virgil, Segoe UI Emoji" font-size="20px" fill="#000000" text-anchor="start" style="white-space: pre;" direction="ltr">OAuth2AuthorizedClientRepository</text><text x="0" y="43" font-family="Virgil, Segoe UI Emoji" font-size="20px" fill="#000000" text-anchor="start" style="white-space: pre;" direction="ltr">  .saveAuthorizedClient()</text></g><g stroke-linecap="round" transform="translate(291 1869.8333333333333) rotate(0 240 41.5)"><path d="M-0.82 -0.51 C146.78 1.22, 292.84 0.17, 479.85 -0.63 M-0.08 0.2 C116.64 0.88, 233.75 0.74, 479.86 0.22 M478.01 -1.02 C480.31 23.32, 480.51 43.99, 479.4 84.15 M479.07 0.31 C479.49 18.82, 480.53 37.15, 479.66 82.85 M480.42 82.83 C332.52 82.24, 184.92 82.85, -0.51 83.62 M479.92 83.02 C357.14 82.24, 235.25 81.96, -0.12 83.31 M-1.48 84.26 C1.58 63.04, 0.57 44.27, 1.75 1.65 M-0.65 82.09 C0.35 53.98, -0.08 24.36, 0.83 -0.73" stroke="#000000" stroke-width="1" fill="none"></path></g><g transform="translate(321 1885.8333333333328) rotate(0 107.5 25)"><text x="0" y="18" font-family="Virgil, Segoe UI Emoji" font-size="20px" fill="#000000" text-anchor="start" style="white-space: pre;" direction="ltr">SecurityContextHolder</text><text x="0" y="43" font-family="Virgil, Segoe UI Emoji" font-size="20px" fill="#000000" text-anchor="start" style="white-space: pre;" direction="ltr">  .setContext()</text></g><g stroke-linecap="round"><g transform="translate(561 1330.0000000000002) rotate(0 42.27573562040925 56.349182267052356)"><path d="M-1.56 0.19 C0.31 25.2, 0.09 46.21, 3.43 111.27 M-0.35 0.15 C2.51 29.92, 2.8 61.74, 1.74 110.31 M4.1 112.2 C25.86 111.53, 50.47 109.34, 86.11 112.54 M3.18 111.54 C19.7 111.44, 38.67 112.09, 85.89 111.51" stroke="#000000" stroke-width="1" fill="none"></path></g><g transform="translate(561 1330.0000000000002) rotate(0 42.27573562040925 56.349182267052356)"><path d="M56.21 122.15 C63.66 121.23, 68.87 116.54, 86.82 111.94 M57.42 122.12 C66.25 118.29, 73.67 116.39, 85.13 110.98" stroke="#000000" stroke-width="1" fill="none"></path></g><g transform="translate(561 1330.0000000000002) rotate(0 42.27573562040925 56.349182267052356)"><path d="M56.07 101.63 C63.52 105.06, 68.77 104.71, 86.82 111.94 M57.28 101.6 C66.34 103.48, 73.8 107.28, 85.13 110.98" stroke="#000000" stroke-width="1" fill="none"></path></g></g><g stroke-linecap="round"><g transform="translate(542.6666666666667 1333.3333333333335) rotate(0 53.76926193780844 211.39827982206384)"><path d="M0.48 -0.48 C-0.56 139, 2.63 277.29, 6.09 419.21 M0.44 -0.32 C2.27 120.86, 4.23 242.27, 6.78 419.84 M8.42 421.06 C39.58 423.16, 78.18 421.45, 107.26 423.27 M7.07 419.87 C31.14 421.61, 56.37 422.47, 106.36 423.18" stroke="#000000" stroke-width="1" fill="none"></path></g><g transform="translate(542.6666666666667 1333.3333333333335) rotate(0 53.76926193780844 211.39827982206384)"><path d="M78.89 432.04 C85.97 430.67, 97.18 427.28, 105.27 421.7 M78.81 432.33 C85.33 429.13, 93.6 426.39, 106.57 422.88" stroke="#000000" stroke-width="1" fill="none"></path></g><g transform="translate(542.6666666666667 1333.3333333333335) rotate(0 53.76926193780844 211.39827982206384)"><path d="M79.25 411.52 C86.03 416.91, 97.13 420.28, 105.27 421.7 M79.18 411.82 C85.66 414.55, 93.83 417.73, 106.57 422.88" stroke="#000000" stroke-width="1" fill="none"></path></g></g><g stroke-linecap="round"><g transform="translate(396.8333333333335 1202.5000000000002) rotate(0 41.230958172741 36.09368912751461)"><path d="M-1.38 -1.65 C-0.27 17.73, 1.6 36.84, 0.35 72.45 M-0.88 -0.86 C-0.54 22.46, 1.37 45.67, 0.05 72.76 M-1.11 72.77 C25.77 71.57, 50.2 72.93, 82.54 73.84 M0.68 71.75 C23.7 71.03, 45.28 72.53, 83.84 72.82" stroke="#000000" stroke-width="1" fill="none"></path></g><g transform="translate(396.8333333333335 1202.5000000000002) rotate(0 41.230958172741 36.09368912751461)"><path d="M54.11 80.97 C62.5 80.4, 71 79.7, 83.35 72.76 M54.61 81.76 C63.37 79.53, 73.82 77.17, 83.05 73.07" stroke="#000000" stroke-width="1" fill="none"></path></g><g transform="translate(396.8333333333335 1202.5000000000002) rotate(0 41.230958172741 36.09368912751461)"><path d="M54.44 60.45 C62.59 64.82, 71.01 69.06, 83.35 72.76 M54.94 61.24 C63.63 65.38, 73.98 69.4, 83.05 73.07" stroke="#000000" stroke-width="1" fill="none"></path></g></g><g stroke-linecap="round"><g transform="translate(154.33333333333348 1048.3333333333337) rotate(0 41.76150606894777 36.129374485881044)"><path d="M-1.33 -1.32 C-1.55 20.56, -1.48 39.45, 2.71 72.23 M0.22 0.63 C0.7 16.39, 0.27 31.7, 1.22 72.27 M-0.65 71.15 C31.49 75.27, 63.47 72.57, 84.92 71.55 M1.13 71.73 C26.87 74.2, 51.58 73.49, 83.6 73.46" stroke="#000000" stroke-width="1" fill="none"></path></g><g transform="translate(154.33333333333348 1048.3333333333337) rotate(0 41.76150606894777 36.129374485881044)"><path d="M54.12 82.51 C61.53 82.4, 68.75 79.59, 85.47 73.19 M55.67 84.46 C62.24 81.88, 67.94 78.63, 83.98 73.22" stroke="#000000" stroke-width="1" fill="none"></path></g><g transform="translate(154.33333333333348 1048.3333333333337) rotate(0 41.76150606894777 36.129374485881044)"><path d="M54.04 61.99 C61.35 67.26, 68.6 69.82, 85.47 73.19 M55.59 63.94 C62.19 65.96, 67.9 67.3, 83.98 73.22" stroke="#000000" stroke-width="1" fill="none"></path></g></g><g stroke-linecap="round"><g transform="translate(130.8111411477945 1045.1105409553932) rotate(0 71.15254811085845 435.6462591962272)"><path d="M-0.57 0.51 C0.7 264.55, 3.53 528.87, 9.62 862.81 M-0.17 0.33 C2.5 273.05, 5.04 546.27, 8.51 862.96 M8.83 861.47 C41.57 864.7, 72.33 864.08, 142.87 870.96 M9.24 863.35 C35.83 864.35, 63.39 866, 142.32 869.78" stroke="#000000" stroke-width="1" fill="none"></path></g><g transform="translate(130.8111411477945 1045.1105409553932) rotate(0 71.15254811085845 435.6462591962272)"><path d="M112.24 879.93 C123.06 875.82, 132.12 872.58, 144.21 869.2 M113.22 879.48 C123.29 875.66, 131.69 872.94, 141.44 869.58" stroke="#000000" stroke-width="1" fill="none"></path></g><g transform="translate(130.8111411477945 1045.1105409553932) rotate(0 71.15254811085845 435.6462591962272)"><path d="M113.25 859.44 C123.62 861.61, 132.37 864.66, 144.21 869.2 M114.23 858.98 C123.94 861.64, 132.03 865.42, 141.44 869.58" stroke="#000000" stroke-width="1" fill="none"></path></g></g><g stroke-linecap="round"><g transform="translate(120.99998542597643 315.00000245271275) rotate(0 30.062164993369322 47.53866282803088)"><path d="M0.24 -0.4 C-0.9 23.2, 2.31 44.03, -0.42 93.64 M-0.57 -0.44 C0.46 28.72, -0.64 56.92, 0.08 93.47 M0.38 93.73 C15.64 94.63, 35.79 95.77, 60.69 94.32 M-0.14 94.66 C17.4 94.42, 35.51 95.63, 59.48 95.51" stroke="#000000" stroke-width="1" fill="none"></path></g><g transform="translate(120.99998542597643 315.00000245271275) rotate(0 30.062164993369322 47.53866282803088)"><path d="M31.72 105.03 C36.44 104.16, 46.09 100.56, 58.46 95.17 M30.91 104.99 C40.56 102.47, 47.76 99.2, 58.96 95" stroke="#000000" stroke-width="1" fill="none"></path></g><g transform="translate(120.99998542597643 315.00000245271275) rotate(0 30.062164993369322 47.53866282803088)"><path d="M31.9 84.71 C36.69 88.62, 46.3 89.8, 58.46 95.17 M31.08 84.67 C40.62 88.31, 47.77 91.19, 58.96 95" stroke="#000000" stroke-width="1" fill="none"></path></g></g><g stroke-linecap="round" transform="translate(297.66666666666674 2015.166666666667) rotate(0 248.33333333333326 41.5)"><path d="M0.71 0.57 C107.8 0.63, 216.97 1.35, 496.73 -0.38 M-0.34 -0.31 C118.13 -0.98, 235.99 -1.21, 496.85 0.32 M498.35 -0.88 C496.6 32.13, 494.18 67.06, 498.6 81.42 M496.88 -0.08 C497.75 31.41, 496.65 65.16, 496.28 82.41 M495.92 82.74 C306.08 84.88, 116.44 84.84, -0.08 82.21 M496.32 83.26 C330.09 82.38, 163.27 82.49, -0.1 82.79 M-0.5 84.15 C-2 62.29, -0.01 42.95, 0.16 -0.19 M-0.1 82.34 C0.32 65.91, -0.19 50.2, 0.43 -0.67" stroke="#000000" stroke-width="1" fill="none"></path></g><g transform="translate(306.0000000000002 2032.833333333333) rotate(0 242 25)"><text x="0" y="18" font-family="Virgil, Segoe UI Emoji" font-size="20px" fill="#000000" text-anchor="start" style="white-space: pre;" direction="ltr">SavedRequestAwareAuthenticationSuccessHandler</text><text x="0" y="43" font-family="Virgil, Segoe UI Emoji" font-size="20px" fill="#000000" text-anchor="start" style="white-space: pre;" direction="ltr">  .onAuthenticationSuccess()</text></g><g stroke-linecap="round"><g transform="translate(109.33333333333348 1045) rotate(0 87.71470406390728 511.00594679206426)"><path d="M-0.31 0.39 C2.41 288.2, 5.08 578.32, 8.4 1019.38 M-0.09 -0.34 C2.64 248.72, 5.07 497.07, 9.16 1018.99 M8.64 1018.53 C60.87 1021.55, 114.63 1023.05, 175.74 1022.03 M9.54 1018.57 C55.24 1019.81, 100.69 1020.68, 175.21 1020.75" stroke="#000000" stroke-width="1" fill="none"></path></g><g transform="translate(109.33333333333348 1045) rotate(0 87.71470406390728 511.00594679206426)"><path d="M146.2 1031.87 C153.53 1026.18, 161.71 1026.42, 173.3 1021.3 M146.76 1030.04 C153.86 1028.34, 161.24 1025.03, 175.2 1020.31" stroke="#000000" stroke-width="1" fill="none"></path></g><g transform="translate(109.33333333333348 1045) rotate(0 87.71470406390728 511.00594679206426)"><path d="M146.29 1011.35 C153.62 1011.47, 161.77 1017.54, 173.3 1021.3 M146.85 1009.52 C153.95 1012.83, 161.3 1014.53, 175.2 1020.31" stroke="#000000" stroke-width="1" fill="none"></path></g></g><g stroke-linecap="round" transform="translate(304.33333333333326 2161.166666666667) rotate(0 240 25.5)"><path d="M-0.59 -0.58 C97.76 2.02, 195.55 0.51, 479.46 0.51 M-0.37 -0.21 C166.93 -0.07, 332.68 -0.58, 479.76 -0.38 M478.91 -1.98 C478.98 17.47, 479.35 39.28, 481.57 52.69 M480.81 0.56 C480.4 19.68, 480.56 37.82, 479.29 51.39 M480.79 51.36 C331.14 50.96, 181.14 51.11, 0.58 50.28 M479.96 51.38 C315.44 49.69, 151.14 50.01, -0.4 51.25 M-1.05 52.05 C-0.19 37.54, -1.29 22.45, -0.41 -1.98 M0.25 50.95 C1.16 38.42, -0.42 23.56, -0.72 -0.48" stroke="#000000" stroke-width="1" fill="none"></path></g><g transform="translate(371.33333333333326 2174.166666666667) rotate(0 156 12.5)"><text x="0" y="18" font-family="Virgil, Segoe UI Emoji" font-size="20px" fill="#000000" text-anchor="start" style="white-space: pre;" direction="ltr">Redirect to defaultSuccessUrl </text></g><g stroke-linecap="round"><g transform="translate(514.3333333333335 2110) rotate(0 0.9874000738684572 20.622299041288443)"><path d="M-0.64 -1.17 C2.46 11.43, 1.17 19.99, -0.06 41.46 M0.33 -0.54 C0.99 8.96, 0.36 18.97, 2.62 42.42" stroke="#000000" stroke-width="1" fill="none"></path></g><g transform="translate(514.3333333333335 2110) rotate(0 0.9874000738684572 20.622299041288443)"><path d="M-6.97 21.49 C-2.17 28.2, -1.65 30.91, 0.89 40.54 M-6 22.13 C-3.65 26.34, -2.64 31.04, 3.57 41.51" stroke="#000000" stroke-width="1" fill="none"></path></g><g transform="translate(514.3333333333335 2110) rotate(0 0.9874000738684572 20.622299041288443)"><path d="M7.81 20.36 C8.96 27.44, 5.81 30.44, 0.89 40.54 M8.79 21 C7.81 25.44, 5.49 30.39, 3.57 41.51" stroke="#000000" stroke-width="1" fill="none"></path></g></g></svg>